<svg width="734" height="640" viewBox="0 0 734 640" fill="none" xmlns="http://www.w3.org/2000/svg" xmlns:xlink="http://www.w3.org/1999/xlink">
<rect width="734" height="640" fill="url(#pattern0)"/>
<defs>
<pattern id="pattern0" patternContentUnits="objectBoundingBox" width="1" height="1">
<use xlink:href="#image0" transform="translate(-0.00408719) scale(0.0013624 0.0015625)"/>
</pattern>
<image id="image0" width="740" height="640" xlink:href="../img/home.png"/>
</defs>
<path d="M222 527L442.8 535L512 521.3V543L443.5 562.7L222 551.7V527Z" fill="#3595F6" fill-opacity="0.75"/>
<path d="M223 527V502L443.3 505.3L513 502V522L443.7 535L223 527Z" fill="#3595F6" fill-opacity="0.75"/>
<path d="M223 502V477H444H513V500L445 507L223 502Z" fill="#3595F6" fill-opacity="0.75"/>
<path d="M223 477V452L444.3 448.3L512 455V477H444" fill="#3595F6" fill-opacity="0.75"/>
<path d="M223 452V426L444.5 422.7L513 433.7V455L444 448.3L223 452Z" fill="#3595F6" fill-opacity="0.75"/>
<path d="M222 426V402.3L443 390L514 413V434.3L443 422L222 426Z" fill="#3595F6" fill-opacity="0.75"/>
<path d="M222 404V379L444.2 362.7L514 391.3V412L443.7 390.3L222 404Z" fill="#3595F6" fill-opacity="0.75"/>
<path d="M222 380V355L444.5 334.7L514 371.3V392L442 363.3L222 380Z" fill="#3595F6" fill-opacity="0.75"/>
<path d="M222 357V333L445 308.3L514 352.3V374L444.7 336L222 357Z" fill="#3595F6" fill-opacity="0.75"/>
<path d="M222 333V309L444.5 280.3L514 331.3V352L443.7 309.7L222 333Z" fill="#3595F6" fill-opacity="0.75"/>
<path d="M221 309.886V284.671L443.3 250L514 312.303V333L444 279.733L221 309.886Z" fill="#3595F6" fill-opacity="0.75"/>
<path d="M222 284.165V258.471L443.2 221L513 289.518V312L444.3 249.585L222 284.165Z" fill="#3595F6" fill-opacity="0.75"/>
<path d="M222 258.462V232.088L444.3 192L513 266.163V288L444 220.484L222 258.462Z" fill="#3595F6" fill-opacity="0.75"/>
<path d="M222 232V207L442.8 163.3L513 242.3V265L444 191.7L222 232Z" fill="#3595F6" fill-opacity="0.75"/>
<path d="M223 207V182L443 134L513 219V242L442.3 162.7L223 207Z" fill="#3595F6" fill-opacity="0.75"/>
<path d="M222 182V157L441.8 105L513 197.3V220L443.3 133.7L222 182Z" fill="#3595F6" fill-opacity="0.75"/>
<path d="M222 157V123.156L444 61.5L513 174.868V199L444 105L222 157Z" fill="#3595F6" fill-opacity="0.75"/>

</svg>
